<svg width="500" height="500" viewBox="0 0 39 39" fill="none" xmlns="http://www.w3.org/2000/svg"><path d="M16.126 1.92892C15.9827 0.909474 16.784 0 17.8253 0H21.176C22.2174 0 23.0186 0.909474 22.8754 1.92892L21.2074 13.7985C21.0896 14.6368 20.357 15.2609 19.5007 15.2609C18.6444 15.2609 17.9118 14.6368 17.794 13.7985L16.126 1.92892Z" fill="#7FBDFF"></path><path d="M22.874 37.0711C23.0173 38.0905 22.216 39 21.1747 39H17.824C16.7826 39 15.9814 38.0905 16.1246 37.0711L17.7926 25.2015C17.9104 24.3632 18.643 23.7391 19.4993 23.7391C20.3556 23.7391 21.0882 24.3632 21.206 25.2015L22.874 37.0711Z" fill="white"></path><path d="M7.58588 34.5493C7.17879 35.0895 6.38396 35.1398 5.90012 34.656L4.34331 33.0992C3.85947 32.6153 3.90977 31.8205 4.44998 31.4134L10.7398 26.6735C11.184 26.3388 11.8144 26.3892 12.2122 26.7871C12.6101 27.1849 12.6605 27.8153 12.3257 28.2595L7.58588 34.5493Z" fill="#7FBDFF"></path><path d="M31.4142 4.44886C31.8213 3.90864 32.6162 3.85835 33.1 4.34219L34.6568 5.899C35.1406 6.38284 35.0904 7.17766 34.5501 7.58476L28.2603 12.3246C27.8161 12.6594 27.1858 12.609 26.7879 12.2111C26.39 11.8132 26.3396 11.1829 26.6744 10.7387L31.4142 4.44886Z" fill="#7FBDFF"></path><path d="M4.45069 7.58591C3.91047 7.17882 3.86018 6.38399 4.34402 5.90015L5.90081 4.34336C6.38465 3.85952 7.17948 3.90981 7.58657 4.45003L12.3264 10.7398C12.6612 11.184 12.6108 11.8144 12.2129 12.2122C11.815 12.6101 11.1847 12.6605 10.7405 12.3257L4.45069 7.58591Z" fill="#7FBDFF"></path><path d="M34.5511 31.4142C35.0914 31.8213 35.1417 32.6162 34.6578 33.1L33.101 34.6568C32.6172 35.1406 31.8224 35.0903 31.4153 34.5501L26.6754 28.2603C26.3407 27.8161 26.3911 27.1858 26.7889 26.7879C27.1868 26.3901 27.8171 26.3396 28.2613 26.6744L34.5511 31.4142Z" fill="#7FBDFF"></path><path d="M1.92892 22.874C0.909474 23.0173 -2.9487e-08 22.216 -7.50067e-08 21.1747L-2.2147e-07 17.824C-2.6699e-07 16.7826 0.909474 15.9814 1.92892 16.1246L13.7985 17.7926C14.6368 17.9104 15.2609 18.643 15.2609 19.4993C15.2609 20.3556 14.6368 21.0882 13.7985 21.206L1.92892 22.874Z" fill="white"></path><path d="M37.0711 16.126C38.0905 15.9827 39 16.784 39 17.8253L39 21.176C39 22.2174 38.0905 23.0186 37.0711 22.8754L25.2015 21.2074C24.3632 21.0896 23.7391 20.357 23.7391 19.5007C23.7391 18.6444 24.3632 17.9118 25.2015 17.794L37.0711 16.126Z" fill="white"></path></svg>